<?xml version="1.0" encoding="utf-8"?>
<!-- Generator: Adobe Illustrator 18.1.0, SVG Export Plug-In . SVG Version: 6.00 Build 0)  -->
<!DOCTYPE svg PUBLIC "-//W3C//DTD SVG 1.1//EN" "http://www.w3.org/Graphics/SVG/1.1/DTD/svg11.dtd">
<svg version="1.1" id="レイヤー_1" xmlns="http://www.w3.org/2000/svg" xmlns:xlink="http://www.w3.org/1999/xlink" x="0px"
	 y="0px" viewBox="0 0 242.766 33.232" enable-background="new 0 0 242.766 33.232" xml:space="preserve">
<g>
	<path fill="#FCFCFC" d="M10.28,25.653V0H0v28.294C2.605,27.698,6.233,26.816,10.28,25.653z"/>
	<path fill="#F3C51C" d="M0,28.757v4.475h10.28V27.22C6.216,27.97,2.597,28.46,0,28.757z"/>
	<path fill="#FCFCFC" d="M24.571,20.706V6.564H14.301v17.884C17.691,23.373,21.224,22.123,24.571,20.706z"/>
	<path fill="#F3C51C" d="M14.301,26.406v6.825h10.271v-9.623C21.18,24.745,17.657,25.662,14.301,26.406z"/>
	<path fill="#FCFCFC" d="M38.87,11.713V0H28.592v18.88C32.848,16.783,36.528,14.388,38.87,11.713z"/>
	<path fill="#F3C51C" d="M28.592,22.114v11.117H38.87V16.1C36.17,18.513,32.568,20.487,28.592,22.114z"/>
	<path fill="#FFFFFF" d="M52.047,9.904c-0.272,0.702-0.493,1.017-0.691,1.32l-1.049-0.608c0.084-0.105,0.199-0.251,0.294-0.398
		h-1.279v0.87c0.355,0.64,0.953,1.28,1.437,1.772l-0.661,0.944c-0.314-0.367-0.503-0.671-0.775-1.175v4.497h-0.996v-4.874
		c-0.272,0.933-0.691,1.845-1.236,2.652l-0.483-1.32c0.828-1.122,1.3-2.401,1.572-3.366h-1.362V9.181h1.51V7.283h0.996v1.898h1.279
		v1.027c0.294-0.462,0.586-1.017,0.975-2.579l1.09,0.157c-0.062,0.294-0.146,0.64-0.282,1.08h0.807V7.283h1.038v1.584h2.212v1.038
		h-2.212v1.467h2.422v1.048h-2.087c0.734,1.342,1.289,1.971,2.254,2.757l-0.545,1.153c-0.388-0.356-1.373-1.247-2.044-2.715v3.512
		h-1.038v-3.48c-0.64,1.038-1.32,1.803-2.369,2.61l-0.682-0.963c0.923-0.619,1.95-1.479,2.757-2.873h-2.295v-1.048h2.589V9.904
		H52.047z"/>
	<path fill="#FFFFFF" d="M65.953,8.939h1.132v1.048H63.94c0.042,0.796,0.167,2.946,0.808,4.508c0.052,0.115,0.523,1.279,0.964,1.279
		c0.356,0,0.524-1.09,0.588-1.572l0.964,0.545c-0.147,0.807-0.43,2.348-1.374,2.348c-0.628,0-2.787-0.724-3.04-7.108h-5.535V8.939
		h5.504c0-0.231-0.031-1.394-0.042-1.667h1.111c0,0.65-0.011,1.248,0.011,1.667h1.897c-0.504-0.377-0.934-0.629-1.562-0.943
		l0.628-0.818c0.535,0.251,1.185,0.628,1.688,0.995L65.953,8.939z M57.314,15.659c0.567-0.074,1.982-0.252,2.223-0.283v-3.04h-2.044
		v-1.038h5.053v1.038h-1.929v2.904c1.205-0.178,1.845-0.304,2.255-0.387v0.985c-1.709,0.377-4.142,0.734-5.379,0.891L57.314,15.659z
		"/>
	<path fill="#FFFFFF" d="M69.953,10.543c-0.798,0.503-1.279,0.713-1.729,0.901l-0.619-1.006c1.688-0.586,3.647-1.876,4.539-3.229
		h1.206c0.766,1.195,2.453,2.38,4.528,3.187l-0.671,1.048c-0.441-0.22-1.049-0.524-1.688-0.933v0.598h-5.567V10.543z M76.201,17.19
		c-0.126-0.231-0.189-0.346-0.431-0.702c-1.436,0.147-3.784,0.314-7.442,0.388l-0.157-1.091c0.22,0,1.174,0,1.499-0.01
		c0.272-0.514,0.797-1.656,1.017-2.442h-2.693v-1.017h9.444v1.017h-5.462c-0.356,0.85-0.765,1.741-1.121,2.412
		c1.96-0.043,2.18-0.053,4.277-0.158c-0.514-0.681-0.776-1.037-1.237-1.499l0.892-0.546c0.324,0.315,1.52,1.499,2.432,3.02
		L76.201,17.19z M74.933,10.113c-1.133-0.796-1.929-1.709-2.181-1.991c-0.419,0.502-0.986,1.143-2.159,1.991H74.933z"/>
	<path fill="#FFFFFF" d="M80.966,17.116h-1.08V13.07c-0.629,0.587-0.943,0.775-1.269,0.975l-0.461-1.07
		c1.342-0.786,2.369-1.918,2.852-3.06h-2.705V8.888h1.583V7.252h1.08v1.636h1.227v1.027c-0.179,0.398-0.419,0.922-1.06,1.771
		c0.535,0.608,0.787,0.787,1.469,1.289l-0.504,0.997c-0.492-0.399-0.775-0.682-1.132-1.102V17.116z M84.541,7.252h1.101v2.966h2.243
		v1.123h-2.243v4.308h2.484v1.122h-6.228v-1.122h2.642v-4.308H82.35v-1.123h2.191V7.252z"/>
	<path fill="#FFFFFF" d="M46.494,31.02l1.237-0.12c0.075,0.415,0.226,0.721,0.454,0.915c0.227,0.193,0.534,0.291,0.92,0.291
		c0.41,0,0.718-0.086,0.927-0.259c0.208-0.173,0.311-0.375,0.311-0.607c0-0.15-0.043-0.277-0.13-0.38
		c-0.088-0.105-0.24-0.196-0.457-0.273c-0.149-0.052-0.489-0.142-1.019-0.274c-0.681-0.169-1.16-0.377-1.435-0.623
		c-0.387-0.346-0.579-0.769-0.579-1.268c0-0.32,0.09-0.62,0.272-0.9c0.181-0.278,0.444-0.491,0.786-0.637
		c0.342-0.146,0.755-0.219,1.238-0.219c0.79,0,1.386,0.172,1.785,0.52c0.4,0.347,0.609,0.809,0.629,1.388l-1.271,0.055
		c-0.055-0.322-0.171-0.556-0.35-0.698c-0.18-0.143-0.448-0.212-0.805-0.212c-0.37,0-0.66,0.075-0.868,0.227
		c-0.134,0.097-0.202,0.228-0.202,0.391c0,0.149,0.063,0.276,0.188,0.382c0.161,0.135,0.549,0.275,1.169,0.42
		c0.618,0.146,1.076,0.297,1.373,0.453c0.295,0.156,0.527,0.369,0.696,0.641c0.167,0.27,0.25,0.604,0.25,1.002
		c0,0.361-0.1,0.699-0.301,1.013c-0.201,0.315-0.483,0.549-0.85,0.702c-0.367,0.154-0.824,0.23-1.37,0.23
		c-0.796,0-1.407-0.183-1.835-0.55C46.833,32.26,46.578,31.725,46.494,31.02z"/>
	<path fill="#FFFFFF" d="M55.499,33.069v-2.651l-2.307-3.646h1.491l1.482,2.491l1.452-2.491h1.464l-2.314,3.656v2.641H55.499z"/>
	<path fill="#FFFFFF" d="M60.553,31.02l1.236-0.12c0.074,0.415,0.225,0.721,0.454,0.915c0.226,0.193,0.534,0.291,0.921,0.291
		c0.409,0,0.717-0.086,0.926-0.259c0.208-0.173,0.311-0.375,0.311-0.607c0-0.15-0.043-0.277-0.13-0.38
		c-0.088-0.105-0.241-0.196-0.458-0.273c-0.149-0.052-0.489-0.142-1.018-0.274c-0.682-0.169-1.16-0.377-1.435-0.623
		c-0.386-0.346-0.58-0.769-0.58-1.268c0-0.32,0.091-0.62,0.272-0.9c0.183-0.278,0.444-0.491,0.788-0.637
		c0.342-0.146,0.753-0.219,1.238-0.219c0.79,0,1.385,0.172,1.786,0.52c0.398,0.347,0.607,0.809,0.628,1.388l-1.271,0.055
		c-0.055-0.322-0.171-0.556-0.351-0.698c-0.179-0.143-0.446-0.212-0.805-0.212c-0.37,0-0.659,0.075-0.868,0.227
		c-0.135,0.097-0.201,0.228-0.201,0.391c0,0.149,0.063,0.276,0.188,0.382c0.16,0.135,0.55,0.275,1.168,0.42
		c0.618,0.146,1.075,0.297,1.373,0.453c0.295,0.156,0.527,0.369,0.696,0.641c0.166,0.27,0.251,0.604,0.251,1.002
		c0,0.361-0.1,0.699-0.301,1.013c-0.201,0.315-0.485,0.549-0.85,0.702c-0.367,0.154-0.824,0.23-1.37,0.23
		c-0.797,0-1.409-0.183-1.835-0.55C60.891,32.26,60.634,31.725,60.553,31.02z"/>
	<path fill="#FFFFFF" d="M69.319,33.069v-5.232h-1.867v-1.065h5.003v1.065h-1.864v5.232H69.319z"/>
	<path fill="#FFFFFF" d="M74.437,33.069v-6.297h4.67v1.065h-3.397v1.396h3.161v1.062h-3.161v1.714h3.518v1.061H74.437z"/>
	<path fill="#FFFFFF" d="M81.449,33.069v-6.297h1.903l1.143,4.295l1.129-4.295h1.908v6.297H86.35v-4.957L85.1,33.069h-1.223
		l-1.247-4.957v4.957H81.449z"/>
	<path fill="#FFFFFF" d="M99.131,32.301l-0.73,0.932c-0.356-0.175-0.701-0.416-1.031-0.721c-0.254,0.229-0.525,0.398-0.811,0.506
		c-0.287,0.108-0.627,0.163-1.022,0.163c-0.785,0-1.374-0.219-1.769-0.66c-0.308-0.34-0.461-0.734-0.461-1.178
		c0-0.403,0.12-0.767,0.36-1.089c0.241-0.321,0.601-0.602,1.08-0.839c-0.215-0.255-0.377-0.497-0.487-0.727
		c-0.108-0.232-0.163-0.45-0.163-0.657c0-0.379,0.153-0.703,0.458-0.967c0.305-0.265,0.74-0.398,1.303-0.398
		c0.545,0,0.97,0.139,1.277,0.417c0.306,0.278,0.459,0.616,0.459,1.017c0,0.255-0.076,0.497-0.227,0.726
		c-0.152,0.229-0.459,0.489-0.919,0.778l0.875,1.156c0.104-0.184,0.192-0.423,0.267-0.718l1.091,0.25
		c-0.109,0.386-0.204,0.668-0.283,0.847c-0.081,0.18-0.167,0.329-0.258,0.45c0.135,0.125,0.308,0.263,0.522,0.415
		C98.875,32.152,99.032,32.251,99.131,32.301z M95.374,30.187c-0.278,0.141-0.487,0.309-0.624,0.507
		c-0.137,0.198-0.205,0.399-0.205,0.605c0,0.261,0.085,0.474,0.255,0.638c0.17,0.165,0.399,0.248,0.686,0.248
		c0.189,0,0.37-0.038,0.544-0.112c0.175-0.074,0.366-0.198,0.572-0.369L95.374,30.187z M95.846,28.878l0.326-0.25
		c0.241-0.185,0.361-0.372,0.361-0.554c0-0.154-0.058-0.286-0.174-0.395c-0.116-0.109-0.272-0.163-0.471-0.163
		c-0.191,0-0.342,0.048-0.451,0.144c-0.108,0.096-0.164,0.208-0.164,0.334c0,0.149,0.092,0.329,0.275,0.541L95.846,28.878z"/>
	<path fill="#FFFFFF" d="M104.357,31.02l1.237-0.12c0.074,0.415,0.225,0.721,0.452,0.915c0.228,0.193,0.536,0.291,0.922,0.291
		c0.409,0,0.719-0.086,0.926-0.259c0.207-0.173,0.312-0.375,0.312-0.607c0-0.15-0.045-0.277-0.131-0.38
		c-0.086-0.105-0.24-0.196-0.458-0.273c-0.148-0.052-0.488-0.142-1.018-0.274c-0.682-0.169-1.16-0.377-1.434-0.623
		c-0.387-0.346-0.581-0.769-0.581-1.268c0-0.32,0.09-0.62,0.273-0.9c0.182-0.278,0.443-0.491,0.786-0.637
		c0.342-0.146,0.755-0.219,1.239-0.219c0.79,0,1.385,0.172,1.784,0.52c0.4,0.347,0.609,0.809,0.63,1.388l-1.272,0.055
		c-0.055-0.322-0.172-0.556-0.35-0.698c-0.179-0.143-0.448-0.212-0.806-0.212c-0.37,0-0.659,0.075-0.868,0.227
		c-0.134,0.097-0.202,0.228-0.202,0.391c0,0.149,0.063,0.276,0.189,0.382c0.16,0.135,0.55,0.275,1.168,0.42
		c0.619,0.146,1.076,0.297,1.372,0.453c0.297,0.156,0.529,0.369,0.696,0.641c0.168,0.27,0.252,0.604,0.252,1.002
		c0,0.361-0.1,0.699-0.301,1.013c-0.2,0.315-0.483,0.549-0.85,0.702c-0.367,0.154-0.824,0.23-1.371,0.23
		c-0.795,0-1.407-0.183-1.833-0.55C104.695,32.26,104.44,31.725,104.357,31.02z"/>
	<path fill="#FFFFFF" d="M111.708,33.069v-6.297h4.67v1.065h-3.398v1.396h3.162v1.062h-3.162v1.714h3.519v1.061H111.708z"/>
	<path fill="#FFFFFF" d="M118.741,33.069v-6.297h2.675c0.674,0,1.162,0.057,1.467,0.17c0.304,0.113,0.548,0.315,0.732,0.604
		c0.184,0.288,0.275,0.62,0.275,0.992c0,0.473-0.139,0.863-0.417,1.171c-0.278,0.307-0.694,0.501-1.246,0.582
		c0.275,0.16,0.502,0.335,0.681,0.527c0.179,0.193,0.419,0.533,0.723,1.022l0.77,1.229h-1.521l-0.919-1.37
		c-0.326-0.49-0.549-0.798-0.669-0.925c-0.121-0.128-0.248-0.215-0.383-0.264c-0.133-0.046-0.348-0.07-0.64-0.07h-0.257v2.629
		H118.741z M120.012,29.436h0.941c0.61,0,0.992-0.025,1.143-0.078c0.151-0.052,0.27-0.14,0.357-0.266
		c0.085-0.126,0.128-0.283,0.128-0.472c0-0.212-0.057-0.383-0.17-0.515c-0.113-0.13-0.273-0.211-0.479-0.246
		c-0.104-0.015-0.413-0.021-0.928-0.021h-0.993V29.436z"/>
	<path fill="#FFFFFF" d="M127.856,33.069l-2.251-6.297h1.38l1.592,4.66l1.543-4.66h1.349l-2.256,6.297H127.856z"/>
	<path fill="#FFFFFF" d="M133.278,33.069v-6.297h4.671v1.065h-3.398v1.396h3.162v1.062h-3.162v1.714h3.519v1.061H133.278z"/>
	<path fill="#FFFFFF" d="M140.311,33.069v-6.297h2.676c0.673,0,1.162,0.057,1.467,0.17c0.304,0.113,0.548,0.315,0.732,0.604
		c0.184,0.288,0.274,0.62,0.274,0.992c0,0.473-0.139,0.863-0.415,1.171c-0.278,0.307-0.694,0.501-1.246,0.582
		c0.275,0.16,0.501,0.335,0.681,0.527c0.179,0.193,0.42,0.533,0.724,1.022l0.77,1.229h-1.521l-0.919-1.37
		c-0.326-0.49-0.549-0.798-0.67-0.925c-0.12-0.128-0.247-0.215-0.382-0.264c-0.133-0.046-0.348-0.07-0.64-0.07h-0.257v2.629H140.311
		z M141.583,29.436h0.94c0.61,0,0.992-0.025,1.143-0.078c0.15-0.052,0.27-0.14,0.356-0.266c0.086-0.126,0.128-0.283,0.128-0.472
		c0-0.212-0.056-0.383-0.169-0.515c-0.113-0.13-0.273-0.211-0.479-0.246c-0.103-0.015-0.412-0.021-0.928-0.021h-0.992V29.436z"/>
	<path fill="#FFFFFF" d="M156.997,32.301l-0.73,0.932c-0.357-0.175-0.701-0.416-1.031-0.721c-0.253,0.229-0.524,0.398-0.811,0.506
		c-0.286,0.108-0.627,0.163-1.022,0.163c-0.785,0-1.374-0.219-1.769-0.66c-0.308-0.34-0.461-0.734-0.461-1.178
		c0-0.403,0.12-0.767,0.361-1.089c0.241-0.321,0.599-0.602,1.079-0.839c-0.214-0.255-0.378-0.497-0.487-0.727
		c-0.108-0.232-0.163-0.45-0.163-0.657c0-0.379,0.153-0.703,0.459-0.967c0.304-0.265,0.739-0.398,1.302-0.398
		c0.545,0,0.971,0.139,1.277,0.417c0.306,0.278,0.459,0.616,0.459,1.017c0,0.255-0.076,0.497-0.227,0.726
		c-0.152,0.229-0.459,0.489-0.919,0.778l0.876,1.156c0.104-0.184,0.191-0.423,0.267-0.718l1.091,0.25
		c-0.108,0.386-0.202,0.668-0.283,0.847c-0.081,0.18-0.167,0.329-0.257,0.45c0.134,0.125,0.308,0.263,0.522,0.415
		C156.742,32.152,156.898,32.251,156.997,32.301z M153.24,30.187c-0.278,0.141-0.486,0.309-0.623,0.507
		c-0.138,0.198-0.206,0.399-0.206,0.605c0,0.261,0.085,0.474,0.255,0.638c0.171,0.165,0.399,0.248,0.686,0.248
		c0.189,0,0.371-0.038,0.545-0.112c0.175-0.074,0.365-0.198,0.572-0.369L153.24,30.187z M153.712,28.878l0.326-0.25
		c0.241-0.185,0.361-0.372,0.361-0.554c0-0.154-0.058-0.286-0.173-0.395c-0.117-0.109-0.273-0.163-0.471-0.163
		c-0.193,0-0.344,0.048-0.452,0.144c-0.108,0.096-0.163,0.208-0.163,0.334c0,0.149,0.092,0.329,0.275,0.541L153.712,28.878z"/>
	<path fill="#FFFFFF" d="M163.438,33.069l-1.503-6.297h1.303l0.947,4.325l1.152-4.325h1.512l1.105,4.399l0.966-4.399h1.28
		l-1.529,6.297h-1.349l-1.254-4.708l-1.249,4.708H163.438z"/>
	<path fill="#FFFFFF" d="M172.011,33.069v-6.297h4.667v1.065h-3.396v1.396h3.162v1.062h-3.162v1.714h3.518v1.061H172.011z"/>
	<path fill="#FFFFFF" d="M179.043,26.772h2.517c0.499,0,0.869,0.021,1.115,0.062c0.244,0.042,0.464,0.129,0.656,0.261
		c0.195,0.132,0.356,0.307,0.485,0.527c0.129,0.218,0.192,0.464,0.192,0.736c0,0.294-0.08,0.566-0.239,0.812
		c-0.158,0.246-0.375,0.432-0.647,0.553c0.383,0.112,0.679,0.303,0.886,0.572c0.207,0.269,0.31,0.585,0.31,0.949
		c0,0.285-0.068,0.564-0.2,0.835c-0.134,0.269-0.316,0.486-0.546,0.647c-0.231,0.163-0.514,0.262-0.852,0.3
		c-0.211,0.022-0.723,0.038-1.533,0.042h-2.143V26.772z M180.314,27.82v1.456h0.833c0.495,0,0.802-0.008,0.925-0.021
		c0.216-0.025,0.388-0.101,0.512-0.225c0.125-0.125,0.187-0.288,0.187-0.492c0-0.195-0.053-0.353-0.161-0.475
		c-0.107-0.121-0.267-0.195-0.479-0.221c-0.126-0.014-0.488-0.022-1.086-0.022H180.314z M180.314,30.324v1.685h1.177
		c0.458,0,0.749-0.014,0.873-0.039c0.187-0.035,0.342-0.118,0.46-0.251c0.119-0.135,0.179-0.311,0.179-0.536
		c0-0.188-0.046-0.35-0.138-0.48c-0.09-0.132-0.223-0.227-0.397-0.288c-0.173-0.06-0.549-0.09-1.126-0.09H180.314z"/>
	<path fill="#FFFFFF" d="M189.835,31.02l1.237-0.12c0.074,0.415,0.225,0.721,0.452,0.915c0.228,0.193,0.536,0.291,0.923,0.291
		c0.409,0,0.718-0.086,0.924-0.259c0.208-0.173,0.312-0.375,0.312-0.607c0-0.15-0.044-0.277-0.13-0.38
		c-0.087-0.105-0.24-0.196-0.458-0.273c-0.149-0.052-0.489-0.142-1.017-0.274c-0.682-0.169-1.16-0.377-1.435-0.623
		c-0.386-0.346-0.581-0.769-0.581-1.268c0-0.32,0.091-0.62,0.273-0.9c0.182-0.278,0.443-0.491,0.785-0.637
		c0.344-0.146,0.756-0.219,1.24-0.219c0.791,0,1.385,0.172,1.784,0.52c0.4,0.347,0.609,0.809,0.63,1.388l-1.271,0.055
		c-0.055-0.322-0.172-0.556-0.351-0.698c-0.179-0.143-0.448-0.212-0.806-0.212c-0.37,0-0.658,0.075-0.868,0.227
		c-0.134,0.097-0.201,0.228-0.201,0.391c0,0.149,0.062,0.276,0.189,0.382c0.16,0.135,0.55,0.275,1.168,0.42
		c0.618,0.146,1.075,0.297,1.373,0.453c0.295,0.156,0.527,0.369,0.696,0.641c0.166,0.27,0.251,0.604,0.251,1.002
		c0,0.361-0.1,0.699-0.301,1.013c-0.2,0.315-0.484,0.549-0.85,0.702c-0.369,0.154-0.825,0.23-1.371,0.23
		c-0.796,0-1.407-0.183-1.834-0.55C190.175,32.26,189.918,31.725,189.835,31.02z"/>
	<path fill="#FFFFFF" d="M196.929,29.959c0-0.641,0.096-1.18,0.288-1.615c0.143-0.321,0.337-0.608,0.586-0.864
		c0.247-0.254,0.518-0.443,0.814-0.567c0.392-0.165,0.844-0.249,1.355-0.249c0.93,0,1.671,0.288,2.229,0.864
		c0.556,0.575,0.835,1.376,0.835,2.4c0,1.016-0.276,1.812-0.828,2.386c-0.553,0.574-1.292,0.861-2.216,0.861
		c-0.936,0-1.683-0.286-2.234-0.856C197.205,31.748,196.929,30.961,196.929,29.959z M198.24,29.917c0,0.712,0.163,1.253,0.492,1.623
		c0.331,0.368,0.748,0.55,1.254,0.55c0.507,0,0.923-0.181,1.248-0.547c0.326-0.365,0.488-0.913,0.488-1.643
		c0-0.721-0.159-1.26-0.474-1.616c-0.318-0.355-0.737-0.533-1.262-0.533c-0.524,0-0.947,0.18-1.268,0.541
		C198.399,28.65,198.24,29.192,198.24,29.917z"/>
	<path fill="#FFFFFF" d="M205.225,33.069v-6.246h1.272v5.186h3.16v1.061H205.225z"/>
	<path fill="#FFFFFF" d="M211.716,26.772h1.272v3.41c0,0.542,0.015,0.893,0.046,1.053c0.055,0.257,0.184,0.465,0.39,0.621
		c0.205,0.155,0.485,0.233,0.838,0.233c0.361,0,0.632-0.073,0.816-0.221c0.184-0.146,0.294-0.328,0.332-0.544
		c0.038-0.214,0.054-0.57,0.054-1.069v-3.483h1.272v3.308c0,0.755-0.035,1.289-0.104,1.602c-0.068,0.311-0.195,0.575-0.379,0.79
		c-0.184,0.214-0.431,0.385-0.741,0.513c-0.309,0.127-0.713,0.19-1.211,0.19c-0.602,0-1.059-0.069-1.369-0.208
		c-0.309-0.139-0.555-0.319-0.736-0.542c-0.18-0.221-0.299-0.453-0.356-0.697c-0.083-0.361-0.124-0.894-0.124-1.598V26.772z"/>
	<path fill="#FFFFFF" d="M220.655,33.069v-5.232h-1.87v-1.065h5.006v1.065h-1.864v5.232H220.655z"/>
	<path fill="#FFFFFF" d="M225.734,33.069v-6.297h1.272v6.297H225.734z"/>
	<path fill="#FFFFFF" d="M229.122,29.959c0-0.641,0.094-1.18,0.287-1.615c0.144-0.321,0.338-0.608,0.587-0.864
		c0.248-0.254,0.518-0.443,0.813-0.567c0.394-0.165,0.845-0.249,1.357-0.249c0.928,0,1.67,0.288,2.229,0.864
		c0.557,0.575,0.834,1.376,0.834,2.4c0,1.016-0.276,1.812-0.829,2.386c-0.552,0.574-1.292,0.861-2.216,0.861
		c-0.937,0-1.681-0.286-2.234-0.856C229.397,31.748,229.122,30.961,229.122,29.959z M230.431,29.917
		c0,0.712,0.165,1.253,0.494,1.623c0.328,0.368,0.748,0.55,1.254,0.55c0.507,0,0.923-0.181,1.247-0.547
		c0.325-0.365,0.488-0.913,0.488-1.643c0-0.721-0.158-1.26-0.475-1.616c-0.317-0.355-0.737-0.533-1.261-0.533
		c-0.524,0-0.947,0.18-1.268,0.541C230.592,28.65,230.431,29.192,230.431,29.917z"/>
	<path fill="#FFFFFF" d="M237.396,33.069v-6.297h1.235l2.577,4.205v-4.205h1.181v6.297h-1.276l-2.538-4.107v4.107H237.396z"/>
	<path fill="#FFFFFF" d="M103.974,17.893h-2.08v-6.416c-1.873,1.135-3.23,1.755-5.192,2.39l-0.958-1.711
		c2.654-0.885,6.549-2.332,10.664-7.199l1.829,1.195c-0.693,0.751-2.051,2.183-4.263,3.894V17.893z"/>
	<path fill="#FFFFFF" d="M124.038,10.443v2.095H110.97v-2.095H124.038z"/>
	<path fill="#FFFFFF" d="M131.696,11.491c0,1.003-0.811,1.8-1.8,1.8c-1.002,0-1.8-0.797-1.8-1.8c0-1.003,0.812-1.799,1.8-1.799
		C130.885,9.691,131.696,10.488,131.696,11.491z"/>
	<path fill="#FFFFFF" d="M146.009,18.011h-1.992v-4.513c-2.139,1.165-3.865,1.695-4.853,2.006l-0.87-1.697
		c4.514-1.135,7.922-3.54,9.234-5.191l-8.143,0.029V6.815h4.632V4.986h1.992v1.829h3.923v1.711c-0.56,0.738-1.608,2.109-3.923,3.747
		V18.011z M150.729,15.71c-1.225-1.033-3.055-2.036-4.308-2.611l1.269-1.416c1.209,0.516,2.979,1.401,4.219,2.301L150.729,15.71z"/>
	<path fill="#FFFFFF" d="M156.619,12.789c-0.193-1.061-0.533-2.272-1.152-3.585l1.594-0.457c0.855,1.696,1.151,2.98,1.284,3.613
		L156.619,12.789z M156.619,16.462c4.97-1.077,6.312-2.995,7.301-8.143l1.902,0.383c-0.796,3.245-1.357,5.443-3.761,7.271
		c-1.889,1.432-3.776,1.874-4.602,2.066L156.619,16.462z M159.833,12.141c-0.279-1.904-0.766-3.039-0.988-3.57l1.608-0.369
		c0.664,1.297,0.959,2.713,1.077,3.525L159.833,12.141z"/>
	<path fill="#FFFFFF" d="M175.517,4.986v3.658c2.566,0.679,4.972,1.815,7.258,3.142l-1.002,2.05
		c-1.313-0.885-4.545-2.655-6.256-3.113v7.272h-2.109V4.986H175.517z"/>
	<path fill="#FFFFFF" d="M197.071,5.812v1.799c0,1.106-0.279,3.437-0.87,4.898c-0.648,1.593-2.508,4.469-8.23,5.339l-0.768-1.844
		c7.612-0.841,7.686-5.532,7.73-8.334h-7.302v3.864h-2.081V5.812H197.071z"/>
	<path fill="#FFFFFF" d="M212.313,10.443v2.095h-13.07v-2.095H212.313z"/>
	<path fill="#FFFFFF" d="M228.011,6.83c-0.767,4.765-2.786,9.942-10.62,11.004l-0.812-1.785c4.189-0.605,7.45-1.976,8.91-7.39
		h-4.942c-1.488,1.992-2.846,2.877-3.51,3.304l-1.328-1.46c0.915-0.532,3.407-1.992,4.795-5.724l2.095,0.34
		c-0.222,0.545-0.414,0.988-0.826,1.71H228.011z"/>
	<path fill="#FFFFFF" d="M229.622,16.241c3.305-1.268,6.682-4.263,8.306-8.512h-7.45V5.841h10.091
		c-0.192,0.96-0.635,3.172-2.714,6.122c1.799,1.386,3.377,2.744,4.911,4.263l-1.666,1.637c-1.357-1.577-2.848-3.038-4.425-4.409
		c-1.639,1.888-3.585,3.481-5.887,4.425L229.622,16.241z"/>
</g>
<g>
</g>
<g>
</g>
<g>
</g>
<g>
</g>
<g>
</g>
</svg>
