<?xml version="1.0" encoding="utf-8"?>
<!-- Generator: Adobe Illustrator 18.1.0, SVG Export Plug-In . SVG Version: 6.00 Build 0)  -->
<!DOCTYPE svg PUBLIC "-//W3C//DTD SVG 1.1//EN" "http://www.w3.org/Graphics/SVG/1.1/DTD/svg11.dtd">
<svg version="1.1" id="レイヤー_1" xmlns="http://www.w3.org/2000/svg" xmlns:xlink="http://www.w3.org/1999/xlink" x="0px"
	 y="0px" viewBox="0 0 100 130" enable-background="new 0 0 100 130" xml:space="preserve">
<g>
	<polygon fill="#FFFFFF" points="41.638,80.605 63.365,78.155 52.501,95.956 	"/>
	<g>
		<path fill="#3E3A39" d="M76.443,112.302c-1.71-6.961-5.593-13.379-7.621-20.318c-1.014-3.471-2.004-9.414-5.95-10.565
			c-1.851-0.54-3.457,0.513-4.468,1.954c-1.851,2.639-3.2,5.662-4.917,8.395c-1.07,1.704-1.984,2-2.763,1.505
			c-0.099-0.779-0.424-1.581-1.043-2.34c-0.335-0.492-0.523-1.035-0.562-1.628c-0.191-0.985-0.639-1.681-1.223-2.139
			c-0.345-1.276-0.617-2.411-0.829-3.012c-0.484-1.374-1.818-2.376-3.242-2.708c-0.481-4.663-7.95-4.313-7.951,0.672
			c-0.001,9.823-3.935,18.87-6.561,28.167c-0.777,2.749,2.209,5.966,5.046,4.792c0.078-0.032,0.153-0.074,0.23-0.109
			c0.528,0.765,1.294,1.39,2.233,1.709c1.865,0.634,3.867,0.259,5.807,0.531c3.314,0.465,6.741,0.386,10.079,0.441
			c6.607,0.11,13.423,0.152,20.011-0.187C75.411,117.325,77.071,114.86,76.443,112.302z"/>
		<path fill="#221714" d="M29.743,114.544l-1.482-0.387c1.264-4.838,2.373-10.012,3.446-15.014
			c1.74-8.114,3.538-16.504,6.128-24.241l1.453,0.486c-2.563,7.656-4.353,16.003-6.083,24.076
			C32.128,104.483,31.015,109.674,29.743,114.544z"/>
		<path fill="#221714" d="M76.13,115.774c-0.53-2.166-1.264-4.476-1.974-6.71c-0.238-0.748-0.475-1.493-0.702-2.229
			c-0.932-3.014-2.035-6.025-3.103-8.938c-0.653-1.784-1.308-3.569-1.929-5.369c-0.415-1.204-0.8-2.494-1.173-3.742
			c-0.938-3.145-1.908-6.396-3.514-8.954l1.299-0.814c1.715,2.735,2.716,6.088,3.684,9.33c0.385,1.29,0.748,2.508,1.152,3.681
			c0.618,1.79,1.269,3.566,1.92,5.343c1.073,2.93,2.184,5.96,3.126,9.011c0.228,0.732,0.463,1.473,0.699,2.218
			c0.718,2.259,1.46,4.594,2.002,6.811L76.13,115.774z"/>
		<path fill="#221714" d="M53.629,95.433l-0.579-0.113c-0.356-0.07-0.707-0.21-1.014-0.406c-0.745-0.477-1.174-1.204-1.583-1.971
			c-1.102-2.065-2.131-4.197-3.06-6.338c-0.085-0.196-0.136-0.249-0.142-0.254c0.021,0.02,0.096,0.047,0.186,0.06l-0.009-1.531
			c0.002-0.001,0.005-0.001,0.008-0.001c0.583,0,1.041,0.376,1.362,1.117c0.913,2.102,1.924,4.197,3.006,6.227
			c0.311,0.582,0.603,1.088,1.014,1.371l3.856-7.955c0.12-0.247,0.383-0.521,0.763-0.56l0.425-0.042l0.318,0.366l-1.219,0.93
			l0.609-0.465l0.017,0.736c0.079-0.008,0.346-0.053,0.465-0.296L53.629,95.433z"/>
		<g>
			<path fill="#FFFFFF" d="M21.37,56.267c-0.092-0.405-0.164-0.827-0.2-1.28c-0.149-1.894,0.595-3.204,1.72-3.96
				c0.787-1.314,2.109-2.307,3.69-2.179c0.694,0.056,1.387,0.113,2.08,0.173c0.001,0,0.002,0,0.003,0
				c0.429-1.892,1.967-3.521,3.868-3.812c0.652-1.664,2.156-2.841,4.111-3.008c2.726-0.233,5.534-0.358,8.2-1.009
				c2.004-0.489,3.98-2.958,5.518-4.251c0.518-0.435,1.066-0.778,1.632-1.056c0.083-0.251,0.188-0.49,0.329-0.7
				c0.237-0.352,0.463-0.712,0.653-1.092c1.144-2.292,4.104-3.174,6.349-2.003c1.697,0.885,2.596,2.669,2.496,4.466
				c1.597,0.792,3.043,1.968,4.526,2.944c1.485,0.977,3.471,1.204,4.777,2.387c0.056,0.051,0.105,0.112,0.16,0.166
				c2.29-0.031,4.608,1.369,4.793,4.313c0.084,1.337,0.168,2.656,0.219,3.968c0.652,0.495,1.264,1.094,1.824,1.83
				c1.46,1.922,0.752,4.359-0.739,5.935c0.002,0.032,0.009,0.061,0.011,0.093c0.051,1.23-0.205,2.54-0.692,3.841
				c0.376,1.072,0.327,2.283-0.399,3.467c-1.106,1.805-1.835,3.7-2.763,5.537c0.245,2.033-0.656,4.24-2.777,5.067
				c-0.805,1.329-1.65,2.496-3.303,3.376c-2.756,1.467-5.904,2.588-8.828,3.668c-4.205,1.553-8.398,0.14-12.285-2.014
				c-1.033,0.024-2.112-0.347-3.099-1.269c-0.986-0.922-2.506-1.37-3.649-2.146c-1.921-1.306-3.457-2.952-4.964-4.704
				c-2.023-2.353-2.438-6.173-5.278-7.514c-0.708-0.335-1.25-0.766-1.65-1.257c-0.954-0.324-1.815-0.911-2.638-1.733
				C21.878,62.15,20.585,58.853,21.37,56.267z"/>
			<path fill="#FFFFFF" d="M24.619,46.546c5.525-2.352,12.029-3.858,16.478-8.087c0.843-0.801,2.083-0.381,2.477,0.464
				c0.408-0.894,0.965-1.695,1.948-2.399c0.646-0.463,1.749-0.427,2.495-0.451c3.834-0.119,5.206-4.208,5.698-7.195
				c0.155-0.938,1.104-1.268,1.884-1.043c1.072-0.725,2.862,0.538,2.145,2.016c-0.121,0.559-0.242,1.119-0.363,1.678
				c0.063,1.06-0.859,1.589-1.701,1.478c-0.686,1.66-1.693,3.136-3.131,4.446c-0.861,0.784-1.849,1.096-2.923,1.442
				c-2.554,0.824-3.385,1.497-4.283,4.05c-0.265,0.753-0.974,1.33-1.818,1.095c-1.179-0.329-2.104-0.862-2.661-1.573
				c-2.648,1.83-5.658,3.073-8.665,4.282c-1.864,0.75-3.733,1.487-5.599,2.233c-1.406,0.562-5.081,1.361-3.853,3.999
				c0.511,1.098,1.49,2.111,2.153,3.128c1.229,1.885,0.841,5.017,3.389,6.013c1.583,0.619,3.791,0.544,5.039,1.913
				c1.426,1.563,2.28,3.262,3.122,5.19c1.249,2.858,3.589,4.519,5.486,6.873c0.866,1.075-0.472,2.537-1.637,2.246
				c-0.728-0.182-1.352-0.488-1.911-0.871c-0.311,0.069-0.653,0.019-0.992-0.217c-0.104-0.072-0.205-0.153-0.307-0.229
				c-0.001,0.001-0.001,0.002-0.002,0.003c-0.005-0.005-0.009-0.01-0.014-0.015c-2.767-2.073-4.984-5.637-5.475-9.162
				c-0.069-0.215-0.088-0.424-0.065-0.623c-0.018-0.22-0.027-0.439-0.031-0.657c-1.385-1.176-3.331-1.301-5.023-1.962
				c-1.144-0.447-2.077-1.364-2.535-2.506c-1.234-3.072-2.876-5.671-4.255-8.632C17.943,49.723,21.842,47.728,24.619,46.546z"/>
		</g>
		<path fill="#221714" d="M54.303,85.095c-1.656,0-3.243-0.591-4.543-1.075c-4.636-1.727-9.89-3.684-13.74-7.098
			c-5.388-4.78-7.428-11.871-9.067-17.569l-1.772-6.163l1.284-0.369l1.772,6.163c1.674,5.82,3.571,12.416,8.669,16.938
			c3.664,3.248,8.793,5.159,13.32,6.846c1.38,0.514,2.945,1.089,4.495,0.975c0.918-0.073,1.782-0.378,2.816-0.769
			c2.108-0.796,4.223-1.635,6.286-2.495c1.418-0.593,2.681-1.146,3.772-1.92c2.001-1.418,3.281-3.44,4.589-6.041
			c2.738-5.449,3.853-11.093,5.031-17.069l0.113-0.574l1.311,0.259l-0.113,0.574c-1.197,6.068-2.327,11.799-5.148,17.41
			c-1.209,2.405-2.652,4.86-5.009,6.531c-1.204,0.854-2.538,1.438-4.031,2.062c-2.078,0.867-4.207,1.712-6.328,2.513
			c-0.893,0.337-2.003,0.757-3.184,0.851C54.652,85.088,54.477,85.095,54.303,85.095z"/>
		<path fill="#221714" d="M62.187,53.417l-0.832-1.046c0.785-0.625,1.714-1.088,2.686-1.341c0.711-0.185,1.43-0.254,2.038-0.298
			c0.668-0.048,1.386-0.073,2.095,0.061c0.762,0.143,1.442,0.451,2.101,0.749l-0.551,1.218c-0.586-0.265-1.193-0.539-1.797-0.653
			c-0.529-0.1-1.082-0.089-1.753-0.041c-0.548,0.04-1.19,0.101-1.797,0.258C63.585,52.529,62.827,52.907,62.187,53.417z"/>
		<path fill="#221714" d="M48.034,54.134l-0.556-0.423c-1.508-1.153-2.264-1.732-4.212-1.647c-0.289,0.013-2.131,0.208-2.375,0.252
			c-0.843,0.151-1.648,0.579-2.208,1.174l-0.973-0.916c0.764-0.812,1.81-1.37,2.945-1.574c0.336-0.061,2.227-0.257,2.552-0.271
			c2.429-0.107,3.543,0.744,5.083,1.921l0.547,0.416L48.034,54.134z"/>
		<g>
			<path fill="#221714" d="M45.44,54.184l-0.536-0.126l0.133-0.568l-0.235,0.23l-0.003,0.117l-0.113-0.003L44.5,54.017l-0.023-0.188
				l-0.195-0.005l-0.191-0.203c-0.199-0.212-0.277-0.513-0.207-0.805c0.073-0.305,0.288-0.549,0.575-0.652
				c0.461-0.163,0.975,0.052,1.203,0.496c0.157,0.307,0.159,0.679,0.005,1.021L45.44,54.184z M45.093,53.435l0.46,0.345
				c0.126-0.223,0.085-0.511-0.1-0.699L45.093,53.435z"/>
			<path fill="#221714" d="M44.896,55.044c-0.179,0-0.366-0.037-0.554-0.128l0.076-0.156c-0.161-0.066-0.32-0.137-0.477-0.213
				c-0.288-0.139-0.618-0.321-0.875-0.621c-0.347-0.403-0.467-0.938-0.313-1.395l0.106-0.317l0.318-0.104
				c0.307-0.102,0.696-0.23,1.12-0.238l0.034-0.111c0.782,0.237,1.567,0.468,2.354,0.692L47.1,52.57l0.062,0.428
				c0.052,0.357-0.049,0.723-0.277,1.002l-0.162,0.143l-0.561,0.387C45.923,54.702,45.444,55.044,44.896,55.044z M44.269,53.209
				c0.078,0.048,0.166,0.093,0.253,0.135c0.161,0.078,0.325,0.15,0.49,0.215l-0.011-0.013c-0.135-0.159-0.32-0.274-0.522-0.325
				C44.415,53.206,44.345,53.201,44.269,53.209z"/>
		</g>
		<path fill="#221714" d="M67.186,54.512c-0.334,0-0.68-0.116-0.979-0.336c-0.242-0.179-0.422-0.395-0.576-0.603
			c-0.146-0.103-0.247-0.262-0.276-0.442c-0.02-0.028-0.037-0.058-0.053-0.088c-0.134-0.118-0.218-0.287-0.226-0.474l-0.016-0.366
			c-0.009-0.234,0.104-0.456,0.3-0.584c0.028-0.019,0.194-0.125,0.225-0.139l0.109-0.053c0.189-0.093,0.425-0.209,0.719-0.239
			c0.267-0.026,0.532,0.037,0.745,0.165c0.275-0.116,0.604-0.104,0.872,0.06l0.141,0.084c0.194,0.116,0.315,0.323,0.324,0.548
			l0.013,0.339c0.018,0.137,0.022,0.275,0.015,0.412c0,0.034-0.003,0.068-0.008,0.101c-0.022,0.226-0.079,0.448-0.17,0.659
			c-0.014,0.033-0.03,0.064-0.049,0.094c-0.021,0.109-0.07,0.212-0.144,0.299l-0.239,0.288c-0.081,0.097-0.188,0.169-0.308,0.208
			C67.47,54.49,67.33,54.512,67.186,54.512z"/>
		<path fill="#221714" d="M52.654,66.763l-0.277-1.307l4.266-0.902c-1.38-1.674-2.253-3.687-2.484-5.756l1.328-0.148
			c0.232,2.075,1.206,4.091,2.743,5.676l0.372,0.384l-0.292,0.447c-0.312,0.477-0.884,0.598-1.19,0.663L52.654,66.763z"/>
		<path fill="#221714" d="M64.443,58.012c-1.704,0-3.058-0.176-4.259-0.553c-2.146-0.673-3.746-2.067-4.281-3.729
			c-0.473-1.466,0.027-3.006,1.216-3.744c0.413-0.256,0.866-0.398,1.295-0.521c3.945-1.131,8.381-1.526,13.679-1.205
			c1.2,0.072,2.41,0.262,3.127,1.149l0.161,0.199l-0.047,0.884c-0.083,1.551-0.177,3.308-1.021,4.882
			c-0.292,0.543-0.623,0.957-1.013,1.264c-0.839,0.662-1.916,0.841-2.947,0.969c-1.459,0.18-2.942,0.304-4.409,0.368
			C65.445,57.997,64.944,58.012,64.443,58.012z M68.698,49.491c-3.718,0-6.961,0.412-9.915,1.259
			c-0.353,0.102-0.691,0.206-0.96,0.372c-0.776,0.482-0.881,1.478-0.648,2.199c0.396,1.23,1.703,2.328,3.41,2.863
			c1.068,0.335,2.294,0.492,3.858,0.492c0.481,0,0.963-0.015,1.441-0.036c1.432-0.063,2.88-0.184,4.304-0.359
			c0.844-0.104,1.715-0.243,2.283-0.691c0.246-0.194,0.457-0.463,0.663-0.847c0.703-1.311,0.786-2.841,0.865-4.32l0.018-0.333
			c-0.45-0.354-1.256-0.45-2.005-0.496C70.872,49.525,69.757,49.491,68.698,49.491z"/>
		<path fill="#221714" d="M55.956,52.588c-0.601-0.271-1.269-0.382-1.923-0.321l-1.754,0.162l0.193-0.207l-0.015-0.249L52.29,52.21
			l-0.387-0.275l0.114-0.498c0.106-0.365,0.456-0.547,0.737-0.562l1.05-0.053c0.123-0.008,0.287,0.023,0.429,0.094
			c0.768-0.021,1.562,0.132,2.273,0.454L55.956,52.588z"/>
		<path fill="#221714" d="M41.265,58.592c-0.63,0-1.207-0.03-1.762-0.091c-1.493-0.164-3.607-0.667-5.199-2.13
			c-0.461-0.423-0.753-0.824-0.918-1.26c-0.137-0.363-0.175-0.732-0.195-1.045c-0.065-1.027,0.023-2.058,0.262-3.062
			c0.1-0.423,0.242-0.865,0.594-1.225c0.433-0.443,1.025-0.593,1.546-0.697c5.653-1.14,11.85-0.528,17.105,1.685l0.461,0.194
			l-0.271,2.366c-0.052,0.443-0.104,0.896-0.252,1.355c-0.449,1.411-1.766,2.6-3.436,3.102c-0.808,0.243-1.632,0.323-2.43,0.399
			l-1.783,0.171C43.776,58.472,42.524,58.592,41.265,58.592z M41.369,49.847c-1.861,0-3.716,0.184-5.512,0.545
			c-0.325,0.066-0.686,0.15-0.854,0.322c-0.118,0.121-0.185,0.327-0.25,0.6c-0.208,0.875-0.285,1.773-0.228,2.669
			c0.014,0.225,0.037,0.46,0.111,0.655c0.089,0.233,0.271,0.472,0.573,0.75c1.325,1.218,3.146,1.644,4.44,1.786
			c1.548,0.17,3.458,0.02,5.211-0.148l1.782-0.171c0.733-0.071,1.492-0.144,2.173-0.349c1.254-0.377,2.23-1.231,2.548-2.229
			c0.108-0.336,0.15-0.706,0.196-1.097l0.157-1.37C48.494,50.525,44.927,49.847,41.369,49.847z"/>
		<path fill="#221714" d="M34.71,52.303c-2.636-1.159-5.551-1.798-8.431-1.849l0.023-1.336c3.055,0.053,6.149,0.731,8.946,1.961
			L34.71,52.303z"/>
		<path fill="#221714" d="M29.044,66.329c-2.576-0.314-5.013-1.63-6.688-3.612c-0.591-0.699-1.121-1.511-1.622-2.482
			c-1.273-2.472-1.758-4.929-1.401-7.104c0.046-0.283,0.187-1.143,0.918-1.508c0.273-0.135,0.553-0.16,0.738-0.175
			c1.648-0.145,3.729-0.145,5.217,1.105l-0.86,1.023c-1.112-0.936-2.854-0.917-4.242-0.797c-0.08,0.007-0.213,0.019-0.258,0.041
			c-0.003,0.001-0.119,0.064-0.195,0.527c-0.392,2.39,0.475,4.732,1.27,6.276c0.454,0.881,0.93,1.611,1.455,2.232
			c1.459,1.727,3.583,2.875,5.828,3.148L29.044,66.329z"/>
		<path fill="#221714" d="M46.724,45.92c-0.168,0-0.368-0.037-0.554-0.165l-0.061-0.042c-0.401-0.106-0.824-0.164-1.257-0.216
			c-2.086-0.251-4.206-0.36-6.311-0.323l-0.026-1.5c2.167-0.039,4.363,0.074,6.517,0.334c0.562,0.068,1.161,0.151,1.748,0.339
			l0.076,0.024l0.287-0.082l0.455,0.61l-0.677,0.497l0.135,0.478C46.987,45.894,46.867,45.92,46.724,45.92z"/>
		<path fill="#221714" d="M60.556,45.385l-0.363-1.456c3.535-0.88,7.163-1.292,10.818-1.221l-0.029,1.5
			C67.476,44.147,63.963,44.537,60.556,45.385z"/>
		<path fill="#221714" d="M53.715,75.234C53.715,75.234,53.715,75.234,53.715,75.234c-1.886,0-3.77-0.139-5.601-0.413l-0.603-0.091
			l0.084-1.484l0.255-0.187c0.871-0.639,1.7-0.812,3.072-1.1l0.895-0.19c0.211-0.046,0.469-0.124,0.751-0.207
			c0.413-0.122,0.871-0.257,1.31-0.346c0.333-0.028,0.582-0.037,0.833-0.037c1.879,0,3.785,0.467,5.135,1.254l0.996,0.145
			l0.207,0.155l1.476,1.411l-1.212,0.276C58.946,74.961,56.39,75.234,53.715,75.234z M49.563,73.664
			c1.368,0.155,2.76,0.234,4.151,0.234c0.001,0,0.001,0,0.001,0c1.807,0,3.605-0.137,5.299-0.399
			c-1.294-0.696-3.21-1.085-4.959-0.96c-0.313,0.068-0.73,0.193-1.107,0.305c-0.317,0.094-0.609,0.18-0.845,0.231l-0.906,0.192
			C50.481,73.418,49.977,73.524,49.563,73.664z"/>
		<path fill="#221714" d="M28.584,61.264l-1.143-1.52c-1.261-1.678-2.381-6.387-2.908-8.884l-4.307,6.436l-0.383-1.418
			c-2.801-10.376-5.05-21.213,0.76-29.661c1.502-2.184,3.605-4.238,6.618-6.465c4.186-3.093,10.663-6.781,17.744-6.781
			c1.352,0,2.69,0.137,3.978,0.407c0.207,0.043,0.413,0.09,0.62,0.137c0.686,0.156,1.333,0.303,1.97,0.314c0.002,0,0.003,0,0.004,0
			c1.096,0,2.063-0.333,3.088-0.687c0.516-0.178,1.031-0.354,1.555-0.492c0.964-0.252,1.987-0.381,3.041-0.381
			c4.062,0,8.205,1.894,11.769,3.669c3.8,1.893,7.121,3.711,9.277,6.816c2.393,3.444,2.731,7.851,2.759,11.305
			c0.075,9.024-0.937,15.204-3.733,22.8l-0.629,1.708l-0.626-1.709c-0.48-1.314-0.667-2.102-0.847-2.864
			c-0.179-0.757-0.347-1.472-0.801-2.711c-0.368-1.003-1.526-3.757-1.975-4.596c-1.416-2.653-4.172-3.736-7.089-4.883
			c-3.493-1.373-7.424-2.919-9.417-7.484l-10.58,9.674l-0.62-3.701c-2.287,3.073-5.49,5.535-9.169,7.022l-0.848,0.342l-0.274-3.644
			c-4.643,3.74-7.592,9.516-7.774,15.352L28.584,61.264z M25.235,47.409l0.296,1.621c0.296,1.619,1.093,5.352,2,7.864
			c0.884-5.776,4.222-11.252,9.073-14.699l0.964-0.685l0.316,4.2c3.594-1.643,6.639-4.288,8.639-7.522l0.934-1.51l0.782,4.67
			l10.233-9.356l0.333,0.958c1.642,4.715,5.386,6.187,9.007,7.61c3.015,1.185,6.132,2.411,7.779,5.498
			c0.509,0.953,1.703,3.817,2.05,4.766c0.482,1.315,0.668,2.103,0.848,2.864c0.065,0.277,0.13,0.549,0.207,0.843
			c2.235-6.611,3.059-12.366,2.991-20.46c-0.028-3.465-0.349-7.428-2.521-10.553c-1.976-2.845-5.143-4.573-8.775-6.382
			c-3.428-1.708-7.4-3.529-11.173-3.529c-0.939,0-1.85,0.114-2.703,0.337c-0.49,0.128-0.974,0.295-1.457,0.462
			c-1.085,0.374-2.206,0.76-3.444,0.76l-0.106-0.001c-0.775-0.014-1.521-0.184-2.243-0.348c-0.199-0.045-0.398-0.09-0.598-0.132
			c-1.198-0.251-2.444-0.378-3.704-0.378c-6.717,0-12.925,3.545-16.95,6.52c-2.89,2.135-4.895,4.089-6.311,6.147
			c-5.228,7.603-3.479,17.499-0.95,27.131L25.235,47.409z"/>
		<path fill="#221714" d="M19.167,52.641c0.217,1.533,2.053,1.837,2.946,0.585c0.241-0.338,0.953-1.529,1.694-2.548
			c0.081,0.001,0.164-0.001,0.245-0.002c0.463,1.288,1.34,3.336,1.38,3.901c0.141,1.95,2.95,1.682,3.076-0.183
			c0.018-0.272,0.03-0.662,0.05-1.116c0.38-0.094,0.729-0.312,0.95-0.683c0.783-1.316,1.83-3.18,2.291-4.952
			c0.173-0.124,0.333-0.292,0.467-0.518c0.112-0.19,0.212-0.362,0.306-0.53c0.182-0.278,0.431-0.629,0.718-1.004
			c0.317-0.032,0.643-0.164,0.945-0.441c0.696-0.667,1.429-1.29,2.179-1.892c0.175-0.103,0.351-0.202,0.533-0.289
			c0.076,0.41,0.183,0.796,0.326,1.18c-0.032,0.065-0.062,0.126-0.096,0.196c-0.719,1.446,1.316,2.94,2.422,1.638
			c1.341-1.58,3.533-3.403,5.17-4.636c0.802-0.604,1.452-1.575,2.229-2.329c0.02,0.437,0.04,0.874,0.06,1.312
			c0.062,1.346,2.17,1.941,2.725,0.603c0.317-0.765,0.988-1.664,1.819-2.557c0.521,0.053,1.038-0.152,1.272-0.736
			c0.216-0.577,0.57-1.042,1.062-1.395c0.031-0.028,0.051-0.058,0.079-0.087c0.992-0.789,1.989-1.451,2.802-1.838
			c0.309,0.005,0.622-0.104,0.899-0.357c0.965-0.329,0.615,0.033,1.427,1.169c0.565,0.79,1.172,1.537,1.75,2.312
			c0.277,0.696,1.108,1.264,1.975,0.939c0.183,0.162,0.375,0.263,0.567,0.312c0.169,0.128,0.34,0.255,0.53,0.376
			c0.12,0.235,0.311,0.443,0.61,0.577c1.441,0.645,2.308,1.234,3.669,1.504c2.399,1.421,4.806,2.805,6.987,4.549
			c0.611,1.213,1.169,2.459,1.328,3.821c0.075,0.639,0.475,1.023,0.944,1.173c-0.094,0.852-0.247,1.714-0.132,2.577
			c0.205,1.526,3.015,1.055,2.662-0.165c-0.807-2.782,1.155-5.5,1.071-8.324c1.402-2.332,1.183-4.826,1.296-8.382
			c0.127-3.999-0.517-8.733-2.685-12.215c-0.013-0.021-0.031-0.033-0.045-0.053c-0.01-0.115-0.023-0.23-0.069-0.331
			c-1.912-4.129-8.073-7.638-12.155-8.944c-3.117-0.997-10.476-3.941-13.287-0.989c-0.062,0.065-0.105,0.14-0.15,0.214
			c-0.589-0.103-1.27-0.141-2.072-0.096c-0.498,0.028-0.842,0.263-1.049,0.58c-0.138-0.119-0.302-0.221-0.5-0.294
			c-1.596-0.588-3.573-0.305-5.252-0.558c-1.445-0.218-2.857-0.228-4.287,0.015c-1.348,0.229-3.316,0.379-4.466,1.15
			c-0.897,0.601-1.541,1.386-2.265,2.128c-0.293-0.156-0.641-0.233-1.034-0.17c-1.644,0.263-3.172,1.548-4.474,2.486
			c-1.477,1.064-3.162,1.824-4.678,2.859c-2.25,1.537-2.926,4.265-3.637,6.735c-0.215,0.119-0.409,0.295-0.556,0.553
			C15.872,36.268,18.131,45.326,19.167,52.641z"/>
	</g>
	<g>
		<path fill="#FFFFFF" d="M44.328,103.723l-0.77-0.201c0.276-1.732,0.706-4.347,3.911-4l0.325,0.035l0.03,0.325
			c0.076,0.83,0.042,1.688,0.007,2.517c-0.013,0.335-0.027,0.669-0.033,0.998l-0.8-0.016c0.006-0.335,0.02-0.674,0.034-1.015
			c0.028-0.688,0.057-1.396,0.02-2.074c-1.878-0.063-2.341,1.211-2.654,3.052l0.063,0.023L44.328,103.723z"/>
		<path fill="#FFFFFF" d="M43.609,103.402c-0.155-1.294-0.389-2.593-0.695-3.86l0.777-0.188c0.314,1.298,0.553,2.628,0.711,3.952
			L43.609,103.402z"/>
	</g>
	<path fill="#FFFFFF" d="M49.975,107.208l-0.012-4.526c-0.003-1.046-0.006-2.128-0.343-3.104l0.756-0.262
		c0.381,1.104,0.384,2.305,0.387,3.364l0.012,4.526L49.975,107.208z"/>
	<path fill="#FFFFFF" d="M53.258,103.442c-0.905,0-1.974-1.028-2.992-2.081l-0.366-0.376l0.134-0.257
		c0.384-0.737,1.267-0.832,1.994-0.832c0.375,0,1.518,0,1.89,0.852c0.107,0.245,0.117,0.494,0.125,0.695l0.062,1.593l-0.131,0.125
		C53.78,103.345,53.533,103.442,53.258,103.442z M50.932,100.899c0.581,0.599,1.776,1.784,2.356,1.741l-0.046-1.166
		c-0.005-0.147-0.012-0.301-0.058-0.407c-0.109-0.249-0.488-0.37-1.157-0.37C51.67,100.697,51.21,100.722,50.932,100.899z"/>
	<path fill="#FFFFFF" d="M58.071,103.972c-0.004-0.171-0.004-0.343,0-0.515c-0.017-1.3-0.176-2.594-0.473-3.86
		c-0.436,1.344-0.589,2.787-0.443,4.193l-0.788,0.133c-0.381-1.626-0.563-3.297-0.541-4.967l0.8,0.011
		c-0.005,0.355,0,0.711,0.015,1.065c0.083-0.33,0.183-0.656,0.296-0.977c0.086-0.239,0.278-0.532,0.562-0.633
		c0.176-0.063,0.361-0.045,0.521,0.053l0.136,0.082l0.043,0.153c0.159,0.575,0.289,1.156,0.392,1.742
		c0.255-0.786,0.602-1.543,1.031-2.242l0.536-0.874l0.197,1.006c0.33,1.682,0.696,3.376,1.087,5.038l-0.778,0.184
		c-0.31-1.312-0.603-2.646-0.875-3.977c-0.564,1.21-0.881,2.544-0.917,3.874c0.002,0.169,0.002,0.337-0.001,0.506L58.071,103.972z"
		/>
</g>
<g>
</g>
<g>
</g>
<g>
</g>
<g>
</g>
<g>
</g>
</svg>
