<?xml version="1.0" encoding="utf-8"?>
<!-- Generator: Adobe Illustrator 18.1.0, SVG Export Plug-In . SVG Version: 6.00 Build 0)  -->
<!DOCTYPE svg PUBLIC "-//W3C//DTD SVG 1.1//EN" "http://www.w3.org/Graphics/SVG/1.1/DTD/svg11.dtd">
<svg version="1.1" id="レイヤー_1" xmlns="http://www.w3.org/2000/svg" xmlns:xlink="http://www.w3.org/1999/xlink" x="0px"
	 y="0px" viewBox="0 0 100 130" enable-background="new 0 0 100 130" xml:space="preserve">
<path fill="#EDE4D1" d="M82.218,52c-0.159-1.439-0.636-2.755-1.305-3.927c-0.814-8.333-5.356-15.897-15.098-20.112
	c-24.919-10.77-54.288,6.687-54.537,33.557c-0.036,4.305,2.773,7.197,6.192,8.346c3.014,5.713,7.347,10.164,12.624,13.246
	c-0.127,0.344-0.242,0.701-0.321,1.083c-1.217,5.544-1.942,11.048-2.488,16.687c-0.718,7.328,6.182,9.992,11.698,8.121
	c4.235,3.883,10.696,2.276,13.785-2.493c1.919,0.984,3.858,1.913,5.292,3.392c7.503,7.763,18.651-2.059,14.268-11.003
	c-1.011-2.077-2.431-4.62-3.39-7.234c0.644-1.182,1.074-2.568,1.168-4.189c0.192-3.282,0.416-6.249,0-9.52
	c-0.033-0.269-0.112-0.515-0.164-0.781c1.385-1.45,2.674-3.022,3.846-4.683c1.632-0.664,3.113-1.867,4.163-3.792
	C80.96,63.199,82.936,58.33,82.218,52z"/>
<g>
	<path fill="#FFFFFF" d="M13.988,45.43c-3.805-3.524-4.2-12.625-5.822-17.857c5.56-0.471,9.72,5.494,12.902,9.084"/>
	<path fill="#221714" d="M13.352,46.116c-2.866-2.654-3.908-8.018-4.828-12.751c-0.396-2.039-0.771-3.964-1.251-5.516l-0.344-1.111
		l1.159-0.098c5.322-0.457,9.235,4.177,12.389,7.894c0.448,0.528,0.878,1.035,1.292,1.502l-1.4,1.241
		c-0.422-0.477-0.861-0.994-1.318-1.533c-2.617-3.084-5.816-6.854-9.648-7.231c0.351,1.368,0.648,2.898,0.959,4.495
		c0.865,4.451,1.846,9.497,4.263,11.736L13.352,46.116z"/>
</g>
<g>
	<path fill="#FFFFFF" d="M64.745,30.231c-0.049-3.789,4.573-8.243,7.993-11.239c1.163,4.51,1.457,9.283,2.126,13.898"/>
	<path fill="#221714" d="M73.939,33.025c-0.205-1.415-0.376-2.844-0.546-4.276c-0.316-2.656-0.642-5.388-1.205-8.012
		c-3.094,2.82-6.546,6.499-6.507,9.482l-1.871,0.024c-0.053-4.095,4.414-8.54,8.312-11.955l1.143-1.001l0.379,1.472
		c0.825,3.196,1.223,6.538,1.607,9.769c0.169,1.416,0.337,2.83,0.54,4.229L73.939,33.025z"/>
</g>
<path fill="#221714" d="M37.798,84.95c-7.312,0-19.027-6.775-22.528-10.572c-6.934-7.531-7.278-26.691-0.614-34.17
	c8.35-9.356,12.561-11.282,23.729-13.481c12.029-2.356,24.597-3.563,35.026,3.497c5.897,3.991,9.975,11.269,10.906,19.466
	c0.91,8.017-1.276,15.525-5.999,20.598c-5.498,5.917-12.561,9.959-19.886,11.38c-0.607,0.116-1.38,0.291-2.26,0.489
	c-6.318,1.425-12.191,2.521-14.628,0.288l1.264-1.379c1.917,1.756,9.096,0.136,12.954-0.734c0.903-0.204,1.697-0.383,2.318-0.501
	c6.936-1.346,13.638-5.188,18.868-10.817c4.351-4.673,6.358-11.639,5.51-19.113c-0.87-7.662-4.645-14.439-10.096-18.128
	c-9.863-6.678-21.986-5.49-33.617-3.21c-10.846,2.136-14.648,3.876-22.693,12.891c-6.036,6.775-5.698,24.823,0.594,31.657
	c1.784,1.934,6.405,5.133,11.787,7.506c5.67,2.501,10.117,3.161,12.201,1.813L41.65,84C40.627,84.662,39.306,84.95,37.798,84.95z"/>
<path fill="#221714" d="M50.542,59.184c-0.433,0-0.853-0.056-1.245-0.162c-0.316-0.042-0.618-0.133-0.885-0.287
	c-0.115-0.066-0.276-0.177-0.432-0.343c-0.147-0.111-0.282-0.233-0.403-0.365l-0.433-0.471l0.282-0.575
	c0.024-0.05,0.053-0.101,0.086-0.154c0.011-0.094,0.026-0.191,0.048-0.293c0.049-0.234,0.151-0.449,0.289-0.647
	c0.222-0.855,0.938-1.648,1.943-2.069c0.766-0.321,1.701-0.331,2.535-0.096c0.253-0.057,0.498-0.092,0.731-0.101
	c0.991-0.032,1.726,0.351,2.155,1.084c0.474,0.803,0.291,1.45,0.141,1.764C55.1,57,54.601,57.358,53.984,57.613
	c-0.021,0.028-0.042,0.057-0.063,0.085c-0.665,0.868-1.844,1.422-3.151,1.48C50.693,59.182,50.617,59.184,50.542,59.184z"/>
<path fill="#221714" d="M44.391,68.918c-1.447,0-3.053-0.463-4.859-1.396l0.857-1.662c2.182,1.125,3.93,1.445,5.344,0.978
	c2.22-0.732,3.509-3.355,4.874-6.132c0.457-0.929,0.929-1.891,1.441-2.774l0.995-1.719l0.691,1.862
	c0.151,0.408,0.283,0.788,0.406,1.143c0.756,2.182,1.068,3.085,3.791,4.106c2.446,0.917,5.602,0.583,8.658-0.914l0.822,1.68
	c-2.066,1.013-6.133,2.487-10.137,0.986c-3.08-1.155-3.893-2.482-4.588-4.357c-0.136,0.271-0.27,0.543-0.401,0.813
	c-1.476,3.001-3,6.105-5.967,7.084C45.708,68.816,45.067,68.918,44.391,68.918z"/>
<g>
	<path fill="#FFFFFF" d="M33.849,56.189c-4.908,1.046-8.85-2.184-9.048-5.964c-0.216-4.435,4.486-6.612,9.317-7.347
		c5.589-0.856,9.812,2.446,9.823,7.136c0.013,4.312-3.534,6.362-7.994,7.186c-1.134,0.213-2.942,0.589-3.894,0.405"/>
	<path fill="#221714" d="M32.672,58.591c-0.289,0-0.555-0.021-0.796-0.067l0.232-1.204c-1.959,0.052-3.843-0.574-5.339-1.722
		c-1.737-1.333-2.795-3.273-2.903-5.323c-0.209-4.28,3.477-7.312,10.111-8.32c3.167-0.486,6.061,0.231,8.147,2.017
		c1.769,1.516,2.747,3.661,2.752,6.042c0.009,2.958-1.503,6.768-8.759,8.107l-0.283,0.054
		C34.637,58.401,33.551,58.591,32.672,58.591z M33.655,55.274l0.283,1.331c0.552-0.081,1.115-0.188,1.547-0.27l0.29-0.055
		c4.809-0.888,7.241-2.995,7.23-6.263c-0.004-1.828-0.749-3.47-2.098-4.625c-1.664-1.426-4.025-1.989-6.647-1.588
		c-2.638,0.401-8.747,1.825-8.525,6.376c0.079,1.499,0.871,2.934,2.173,3.933C29.479,55.317,31.519,55.731,33.655,55.274z"/>
</g>
<path fill="#221714" d="M33.658,54.701c-0.822,0-1.646-0.212-2.386-0.719c-0.181-0.124-0.341-0.25-0.483-0.376
	c-0.588-0.239-1.075-0.613-1.411-1.065c-0.952-1.282-0.715-2.963,0.602-4.283c0.551-0.551,1.175-0.959,1.828-1.242
	c0.312-0.26,0.671-0.524,1.086-0.791c2.843-1.828,4.698-1.04,5.364-0.615c0.906,0.577,1.458,1.569,1.489,2.623
	c0.354,0.526,0.617,1.384,0.114,2.645c-0.473,1.18-1.497,2.044-2.661,2.569C36.247,54.173,34.955,54.701,33.658,54.701z
	 M32.668,51.371c0.179,0.093,0.381,0.168,0.598,0.221c0.119,0.029,0.244,0.051,0.374,0.065c0.015-0.004,0.031-0.008,0.046-0.012
	c-0.181-0.103-0.343-0.236-0.479-0.408c-0.262-0.068-0.509-0.188-0.721-0.382c0.015,0.089,0.038,0.181,0.072,0.276
	C32.588,51.218,32.625,51.297,32.668,51.371z"/>
<g>
	<path fill="#FFFFFF" d="M68.17,48.611c-1.777,1.172-5.716,0.478-7.494-0.76c-1.291-0.894-2.212-2.484-2.035-4.107
		c0.451-4.072,4.208-6.271,7.747-7.174c4.388-1.106,7.693,2.039,7.527,6.467c-0.149,3.906-4.032,5.477-7.33,5.961"/>
	<path fill="#221714" d="M65.614,50.159c-2.046,0-4.269-0.701-5.473-1.539c-1.679-1.163-2.634-3.117-2.43-4.978
		c0.422-3.81,3.5-6.717,8.444-7.978c2.286-0.576,4.454-0.158,6.104,1.178c1.741,1.41,2.686,3.681,2.59,6.23
		c-0.123,3.223-2.49,5.557-6.564,6.549C67.52,50,66.586,50.159,65.614,50.159z M68.113,37.285c-0.483,0-0.985,0.063-1.497,0.193
		c-1.96,0.5-6.574,2.122-7.045,6.37c-0.128,1.168,0.53,2.469,1.637,3.235c1.201,0.836,3.61,1.368,5.263,1.141l-0.021-0.15
		c0.357-0.053,0.753-0.123,1.166-0.216c0.014-0.009,0.027-0.017,0.041-0.026l0.01,0.015c2.325-0.534,5.198-1.809,5.314-4.843
		c0.073-1.955-0.618-3.67-1.898-4.706C70.257,37.628,69.234,37.285,68.113,37.285z"/>
</g>
<path fill="#221714" d="M64.047,46.19c-0.687,0-1.139-0.259-1.402-0.485c-0.75-0.644-0.938-1.78-0.492-2.966
	c0.356-0.943,1.183-1.997,2.479-2.478c0.538-0.723,1.239-1.258,1.991-1.344c0.107-0.012,0.227-0.017,0.354-0.009
	c1.17-0.703,2.368-0.623,3.216,0.223c1.066,1.065,0.953,2.755-0.297,4.412c-1.256,1.665-3.341,2.946-4.913,2.504
	C64.631,46.148,64.321,46.19,64.047,46.19z M68.86,40.444c0.068,0.149,0.134,0.312,0.194,0.49c0-0.181-0.052-0.348-0.184-0.479
	C68.867,40.452,68.864,40.448,68.86,40.444z"/>
<path fill="#221714" d="M11.63,82.298l-1.304-1.342c0.69-0.671,1.354-1.403,1.995-2.111c1.342-1.481,2.73-3.014,4.509-4.17
	c0.337-0.218,0.704-0.444,1.069-0.67c0.567-0.35,1.133-0.697,1.565-1.005l1.083,1.525c-0.46,0.327-1.062,0.699-1.666,1.072
	c-0.354,0.218-0.709,0.438-1.034,0.646c-1.572,1.023-2.819,2.399-4.14,3.856C13.046,80.831,12.362,81.586,11.63,82.298z"/>
<path fill="#221714" d="M22.56,85.106l-1.641-0.898c0.714-1.304,1.809-2.481,2.867-3.621c1.208-1.301,2.349-2.529,2.877-3.838
	l1.735,0.699c-0.657,1.629-1.971,3.044-3.242,4.412C24.131,82.963,23.162,84.007,22.56,85.106z"/>
<path fill="#221714" d="M91.519,63.02c-0.659-0.979-1.99-1.577-3.278-2.155c-0.392-0.176-0.773-0.348-1.127-0.525
	c-3.464-1.733-6.577-2.384-9.519-1.988l-0.25-1.854c3.332-0.447,6.797,0.263,10.606,2.17c0.331,0.166,0.688,0.326,1.056,0.491
	c1.456,0.654,3.106,1.395,4.064,2.818L91.519,63.02z"/>
<path fill="#221714" d="M84.48,70.273l-0.153-0.146c-1.763-1.673-5.024-4.767-7.518-4.767c-0.034,0-0.067,0-0.101,0.002l-0.062-1.87
	c3.289-0.095,6.844,3.263,8.968,5.278l0.153,0.146L84.48,70.273z"/>
<path fill="#221714" d="M77.929,76.774c-1-1.543-3.691-4.782-5.059-5.215l0.564-1.783c2.263,0.716,5.407,4.967,6.064,5.98
	L77.929,76.774z"/>
<path fill="#221714" d="M27.672,104.584c-0.438-1.578-0.318-3.653-0.221-5.32l0.083-1.535c0.259-5.037,0.651-12.648,3.904-16.391
	l1.412,1.227c-2.83,3.256-3.202,10.48-3.448,15.261l-0.083,1.547c-0.084,1.448-0.199,3.433,0.157,4.712L27.672,104.584z"/>
<path fill="#221714" d="M73.621,107.462c-0.885-2.056-1.558-4.134-2.115-6.543l-0.254-1.1c-1.497-6.473-3.046-13.166-3.063-19.815
	l1.871-0.006c0.018,6.439,1.541,13.028,3.015,19.4l0.254,1.1c0.532,2.296,1.171,4.273,2.012,6.224L73.621,107.462z"/>
<path fill="#221714" d="M40.242,36.73c-0.384-1.095-0.905-3.836-1.364-6.255c-0.144-0.759-0.28-1.476-0.401-2.081l1.835-0.365
	c0.121,0.609,0.259,1.333,0.404,2.098c0.425,2.237,0.953,5.021,1.292,5.984L40.242,36.73z"/>
<path fill="#221714" d="M48.126,35.205c-0.912-1.419-1.059-3.441-1.202-5.397c-0.061-0.834-0.118-1.623-0.232-2.309l1.846-0.307
	c0.128,0.772,0.191,1.64,0.252,2.48c0.125,1.722,0.255,3.502,0.91,4.521L48.126,35.205z"/>
<g>
</g>
<g>
</g>
<g>
</g>
<g>
</g>
<g>
</g>
</svg>
