<?xml version="1.0" encoding="utf-8"?>
<!-- Generator: Adobe Illustrator 18.1.0, SVG Export Plug-In . SVG Version: 6.00 Build 0)  -->
<!DOCTYPE svg PUBLIC "-//W3C//DTD SVG 1.1//EN" "http://www.w3.org/Graphics/SVG/1.1/DTD/svg11.dtd">
<svg version="1.1" id="レイヤー_1" xmlns="http://www.w3.org/2000/svg" xmlns:xlink="http://www.w3.org/1999/xlink" x="0px"
	 y="0px" viewBox="0 0 100 130" enable-background="new 0 0 100 130" xml:space="preserve">
<path fill="#FFFFFF" d="M50.078,76.03c-14.407,0-14.407,22.34,0,22.34C64.484,98.37,64.484,76.03,50.078,76.03z"/>
<path fill="#FFFFFF" d="M74.521,50.968c0.402-0.494,0.566-1.184,0.252-1.993c-0.495-1.274-1.226-2.704-2.104-4.175
	c-0.188-1.771-0.852-3.369-2.185-4.678c-2.059-7.167-6.133-12.795-15.7-12.056c-1.464,0.112-1.992,1.324-1.744,2.423
	c-3.254,0.358-4.563,5.697-5.664,7.985c-3.802,7.899-10.079,11.494-16.984,16.175c-1.028,0.699-0.975,1.969-0.436,2.93
	c3.125,5.572,5.604,11.443,7.065,17.655c-1.108,0.749-0.903,2.327,0.01,3.195c-0.042,0.126-0.071,0.265-0.085,0.409
	c-0.646-0.285-1.241-0.594-1.71-0.975c-2.096-1.711-4.719,1.557-2.623,3.262c5.107,4.157,13.776,2.895,19.796,2.164
	c7.368-0.891,16.354-2.762,20.611-9.442c2.979-4.673,2.956-11.438,1.881-17.501C75.138,54.539,74.965,52.775,74.521,50.968z"/>
<path fill="#5B1D12" d="M80.495,62.932c-0.191,0.191-0.431,0.407-0.688,0.632c0.019-1.369-0.005-2.734-0.057-4.104
	c-0.056-2.568-0.243-5.057-0.332-7.178c1.024,0.149,2.147-0.355,2.381-1.664c1.23-6.943-1.717-16.939-4.963-23.053
	c-0.309-0.575-0.758-0.973-1.268-1.165c-2.194-5.329-6.961-8.004-12.602-9.132c-4.669-0.933-9.474-0.86-14.188-1.904
	c-3.419-0.755-6.586-0.994-9.91,0.11c-0.716,0.239-1.112,0.749-1.247,1.329c-0.586-0.515-1.424-0.76-2.168-0.428
	c-2.497,1.104-4.622,2.622-6.901,4.119c-0.689,0.456-0.933,1.079-0.88,1.684c-0.008,0.014-0.017,0.026-0.024,0.035
	c-0.783-0.262-1.756-0.11-2.434,0.557c-1.723,1.684-3.151,3.02-4.339,5.111c-0.295,0.517-0.223,1.219,0.056,1.785
	c-0.547,0.122-1.044,0.47-1.316,1.163c-1.562,3.951-2.474,7.756-2.594,11.864c-0.194,0.324-0.334,0.689-0.322,1.104
	c0.058,2.105,0.405,4.135,0.859,6.143c-0.279,0.369-0.441,0.83-0.395,1.357c0.083,0.915,0.185,1.829,0.279,2.743
	c-0.815,0.265-1.455,0.98-1.331,2.112l0.716,6.592c0.059,0.538,0.276,0.942,0.574,1.232c0.546,1.816,1.13,3.603,1.803,5.392
	c0.104,0.278,0.249,0.505,0.421,0.692c0.712,2.081,1.772,3.97,3.594,5.417c0.654,0.521,1.515,0.515,2.211,0.194
	c1.062,1.206,2.278,2.227,3.81,2.815c0.625,0.241,1.302,0.137,1.856-0.17c0.276,0.65,0.848,1.188,1.571,1.236
	c1.072,0.078,2.117,0.023,3.184-0.09c1.226-0.137,1.788-1.07,1.794-2.023c1.328-0.615,2.055-2.416,0.511-3.406
	c-6.347-4.061-6.288-12.769-7.296-19.486c-0.021-0.133-0.07-0.238-0.106-0.357c0.165-0.283,0.268-0.617,0.291-0.996
	c0.018-0.006,0.035-0.015,0.054-0.02c0.414,0.154,0.886,0.159,1.391-0.107c9.449-5.062,19.112-14.986,23.109-25.135
	c2.647,0.889,5.37,1.649,7.957,2.643c4.463,3.859,7.935,9.443,8.481,13.524c0.188,1.401,1.417,1.936,2.498,1.755
	c0.243,1.883,0.473,3.768,0.659,5.648c0.201,3.129,0.268,6.285,0.02,9.402c-0.169,2.089-0.023,5.412-0.767,7.74
	c-0.781,1.033-1.273,2.079-1.165,3.059c0.192,1.767,2.606,2.571,3.715,1.088c0.421-0.564,0.771-1.188,1.076-1.846
	c0.022-0.012,0.051-0.012,0.074-0.021c2.877-1.445,5.338-3.09,6.049-6.346C84.691,62.318,81.842,61.599,80.495,62.932z"/>
<path fill="#3AB0DB" d="M63.268,89.9c-0.152-0.478-0.508-0.966-0.967-1.263c0.178-1.23,0.15-2.578,0.108-3.998
	c-0.062-2.315-3.551-2.916-4.112-0.557c-1.031,4.339-4.989,4.877-8.828,4.637c-4.062-0.258-6.252-3.629-9.082-6.023
	c-2.038-1.73-4.994,1.186-2.984,2.936c-1.079-0.014-2.189,0.738-2.217,1.948c-0.258,0.171-0.49,0.376-0.648,0.657
	c-3.836,6.877-7.957,14.424-8.197,22.469c-0.008,0.275,0.036,0.514,0.107,0.734c-0.673,1.228-0.09,3.189,1.754,3.221
	c12.458,0.203,24.776,2.706,37.234,1.164c1.216-0.151,1.988-0.844,2.096-2.096C68.243,105.608,65.703,97.554,63.268,89.9z"/>
<path fill="#221714" d="M45.772,84.758c-2.196,0-4.248-0.137-6.139-0.409c-1.726-0.25-6.841-0.988-8.66-4.579
	c-3.015-0.572-5.751-1.74-8.15-3.48c-4.365-3.166-5.854-8.48-7.004-13.652c-0.603-2.72-0.939-5.434-1.189-7.73
	c-0.216-1.979-0.107-3.932-0.002-5.821c0.071-1.274,0.144-2.593,0.113-3.883c-0.217-9.14,4.592-18.254,12.864-24.382
	c5.645-4.18,13.998-8.719,21.744-6.601l0.731,0.196c1.24,0.331,2.522,0.672,3.726,1.245c0.544,0.258,1.058,0.559,1.555,0.851
	c0.209,0.123,0.419,0.245,0.63,0.365c0.701,0.395,0.961,0.383,1.824,0.348l0.438-0.017c2.518-0.08,5.064,0.244,7.322,0.936
	c3.702,1.13,7.204,3.395,10.127,6.55c2.85,3.072,3.451,7.441,3.982,11.297c0.119,0.866,0.236,1.72,0.376,2.546
	c0.777,4.607,1.003,9.503,0.711,15.406c-0.039,0.771-0.104,1.514-0.167,2.245c-0.146,1.686-0.283,3.277-0.094,5.016
	c0.024,0.231,0.034,0.48,0.043,0.733c0.031,0.875,0.092,1.305,0.354,1.378c0.685,0.192,2.443-0.536,3.194-0.848l1.04-0.425
	l0.198,0.775c1.106,4.336-3.994,7.776-5.914,9.072c-2.43,1.647-4.43,2.837-6.328,3.759c-0.96,1.739-2.316,3.089-4.024,3.985
	c-2.736,1.43-5.439,2.781-8.436,3.619c-1.997,0.559-4.021,0.74-5.978,0.916c-0.646,0.058-1.296,0.116-1.951,0.188
	C50.264,84.624,47.947,84.758,45.772,84.758z M32.812,80.031c1.244,1.47,3.56,2.436,7.021,2.935
	c3.647,0.526,7.928,0.528,12.724,0.002c0.664-0.072,1.323-0.132,1.979-0.19c1.981-0.178,3.853-0.346,5.727-0.87
	c2.866-0.801,5.497-2.118,8.164-3.512c1.489-0.781,2.528-1.896,3.254-3.092l-0.197-0.445c0.196-0.086,0.393-0.176,0.59-0.268
	c0.523-1.053,0.833-2.131,1.015-3.073c0.732-3.774,1.215-7.829,1.396-11.727c0.423-9.046-1.083-15.838-4.605-20.763
	c-2.504-3.506-5.773-6.513-8.971-8.251c-1.178-0.64-3-1.184-4.873-1.454c-0.945-0.137-1.251,0.062-1.817,1.184l-0.5,0.991
	c-1.425,2.826-2.77,5.495-4.539,8.135c-2.306,3.442-5.068,6.473-7.988,8.763c-0.446,0.35-0.89,0.704-1.333,1.058
	c-1.207,0.963-2.454,1.958-3.747,2.867c-0.978,0.683-1.812,1.21-2.625,1.661c-0.213,0.119-0.52,0.245-0.853,0.376
	c-0.368,0.146-1.133,0.451-1.26,0.646c-0.472,0.743,0.399,3.567,0.686,4.495l0.156,0.511c0.375,1.28,0.853,2.563,1.314,3.804
	c0.25,0.672,0.5,1.344,0.737,2.021c0.766,2.192,1.826,4.305,2.85,6.348l0.538,1.076c0.331,0.666,0.82,1.199,1.338,1.763
	c0.486,0.53,0.989,1.078,1.361,1.752l0.237,0.43l-0.324,0.368C38.612,79.452,35.042,80.18,32.812,80.031z M45.313,15.091
	c-6.528,0-13.162,4.1-16.877,6.852c-7.908,5.858-12.506,14.541-12.3,23.227c0.033,1.346-0.042,2.692-0.114,3.994
	c-0.102,1.833-0.207,3.728-0.004,5.592c0.246,2.259,0.576,4.925,1.165,7.579c1.092,4.91,2.491,9.945,6.46,12.824
	c2.575,1.869,5.574,3.028,8.914,3.447c1.878,0.231,4.84-0.407,6.29-1.602c-0.255-0.354-0.563-0.688-0.883-1.038
	c-0.561-0.61-1.141-1.242-1.56-2.086l-0.536-1.071c-1.044-2.082-2.125-4.235-2.92-6.513c-0.233-0.667-0.48-1.331-0.728-1.995
	c-0.47-1.264-0.957-2.571-1.346-3.899l-0.149-0.491c-0.683-2.211-1.286-4.469-0.53-5.658c0.368-0.575,1.158-0.889,1.921-1.193
	c0.267-0.106,0.516-0.202,0.689-0.299c0.773-0.429,1.567-0.932,2.503-1.584c1.256-0.883,2.487-1.865,3.677-2.814
	c0.446-0.356,0.893-0.712,1.342-1.065c2.806-2.201,5.465-5.12,7.69-8.442c1.721-2.568,3.048-5.2,4.452-7.986l0.501-0.993
	c0.597-1.183,1.292-2.222,3.264-1.936c0.974,0.141,3.443,0.579,5.339,1.609c3.377,1.835,6.818,4.994,9.441,8.666
	c3.711,5.19,5.302,12.268,4.863,21.64c-0.187,4.02-0.664,8.033-1.42,11.926c-0.124,0.643-0.283,1.256-0.478,1.839
	c1.407-0.769,2.919-1.707,4.663-2.89c2.424-1.635,5.499-4.05,5.453-6.755c-1.32,0.527-2.63,0.944-3.566,0.682
	c-1.291-0.36-1.34-1.752-1.372-2.673c-0.008-0.219-0.015-0.434-0.036-0.632c-0.204-1.874-0.061-3.532,0.092-5.287
	c0.062-0.715,0.125-1.44,0.163-2.194c0.287-5.798,0.067-10.598-0.693-15.103c-0.142-0.839-0.262-1.707-0.383-2.588
	c-0.527-3.829-1.072-7.789-3.622-10.538c-2.757-2.975-6.045-5.106-9.512-6.164c-2.113-0.648-4.486-0.948-6.871-0.875l-0.423,0.016
	c-0.95,0.041-1.521,0.063-2.568-0.526c-0.219-0.124-0.435-0.25-0.65-0.377c-0.492-0.289-0.957-0.561-1.448-0.793
	c-1.088-0.519-2.252-0.829-3.485-1.157l-0.74-0.199C47.775,15.237,46.545,15.091,45.313,15.091z"/>
<path fill="#221714" d="M43.581,55.664c-0.087,0-0.175-0.006-0.264-0.019c-0.581-0.084-1.088-0.443-1.507-1.064
	c-0.249-0.369-0.393-0.741-0.434-1.113c-0.356-0.552-0.452-1.194-0.274-1.864c0.299-1.134,1.301-2.059,2.104-2.439
	c1.745-0.829,2.963-0.674,3.746-0.314c0.478,0.045,0.876,0.185,1.119,0.454c0.185,0.204,0.324,0.488,0.271,0.869
	c0.499,0.923,0.597,2.122,0.21,3.205c-0.48,1.348-1.593,2.194-2.977,2.264c-0.39,0.018-0.784-0.034-1.17-0.149
	C44.147,55.597,43.871,55.664,43.581,55.664z M46.796,53.011c-0.175,0.396-0.403,0.775-0.652,1.103
	c0.657-0.26,0.96-0.833,1.093-1.204c0.085-0.238,0.134-0.486,0.15-0.731C47.243,52.433,47.049,52.709,46.796,53.011z"/>
<path fill="#221714" d="M66.634,53.412c-0.087,0-0.175-0.006-0.264-0.019c-0.58-0.084-1.086-0.442-1.504-1.064
	c-0.249-0.37-0.394-0.741-0.435-1.114c-0.355-0.548-0.452-1.187-0.278-1.853c0.295-1.133,1.297-2.064,2.104-2.451
	c1.75-0.829,2.972-0.674,3.754-0.311c0.475,0.046,0.87,0.185,1.112,0.452c0.184,0.203,0.322,0.487,0.271,0.866
	c0.499,0.923,0.597,2.123,0.211,3.207c-0.479,1.348-1.592,2.194-2.977,2.265c-0.383,0.019-0.782-0.034-1.17-0.149
	C67.201,53.344,66.924,53.412,66.634,53.412z M69.853,50.753c-0.176,0.397-0.404,0.779-0.655,1.107
	c0.656-0.26,0.96-0.833,1.092-1.205c0.085-0.237,0.134-0.483,0.15-0.728C70.296,50.18,70.104,50.455,69.853,50.753z"/>
<path fill="#221714" d="M45.714,53.508l0.442-2.424l-1.029,0.473l1.285-1.869l-0.167-0.158c0.093-0.099,0.187-0.208,0.279-0.327
	c0.117-0.336,0.33-0.662,0.607-0.937c0.13-0.236,0.259-0.491,0.385-0.766l0.53-1.155l0.497,0.767l0.278-0.323l0.017,0.331
	l0.068-0.042l-0.053,0.335l0.013,0.243c0.115,0.279,0.111,0.542,0.041,0.781l0.005,0.094c0.038,0.726-0.372,1.318-0.701,1.793
	l-0.153,0.224l-0.319-0.21c-0.065,0.045-0.135,0.085-0.21,0.12l-0.094,0.043L45.714,53.508z"/>
<path fill="#221714" d="M70.906,49.52l-0.789-1.152c0.087-0.059,0.171-0.14,0.252-0.238l-0.276-1.123
	c0.158-0.039,0.509-0.404,0.718-0.623c0.204-0.212,0.406-0.419,0.602-0.577l1.438-1.158l-0.312,1.82
	C72.397,47.285,71.896,48.843,70.906,49.52z"/>
<path fill="#221714" d="M27.361,113.685l-1.346-0.373c0.247-0.894,0.475-1.793,0.704-2.693c0.586-2.312,1.193-4.703,2.14-7.039
	c0.448-1.106,0.925-2.198,1.403-3.29c0.733-1.675,1.492-3.408,2.114-5.156c0.188-0.527,0.369-1.056,0.55-1.582
	c0.583-1.694,1.185-3.446,1.974-5.136c0.029-0.062,3.103-6.271,3.975-6.441l0.349-0.068l0.275,0.245l-0.476,0.521l0.429,0.516
	c-0.408,0.445-2.858,4.898-3.287,5.818c-0.758,1.622-1.321,3.262-1.918,4.998c-0.183,0.531-0.366,1.063-0.555,1.597
	c-0.639,1.795-1.407,3.551-2.15,5.249c-0.473,1.079-0.946,2.159-1.388,3.254c-0.912,2.247-1.506,4.591-2.081,6.857
	C27.841,111.872,27.611,112.781,27.361,113.685z"/>
<path fill="#221714" d="M67.499,115.576c-0.41-0.755-0.598-2.195-0.818-4.147c-0.07-0.629-0.137-1.218-0.211-1.672
	c-0.34-2.105-0.755-4.247-1.156-6.318l-0.306-1.585c-0.956-4.988-1.751-8.812-2.577-12.4c-0.184-0.795-0.449-1.581-0.73-2.413
	c-0.472-1.396-0.96-2.841-1.033-4.343l1.395-0.068c0.064,1.308,0.5,2.598,0.962,3.964c0.279,0.828,0.568,1.685,0.769,2.547
	c0.829,3.605,1.628,7.445,2.587,12.45l0.306,1.583c0.403,2.082,0.82,4.235,1.163,6.359c0.077,0.472,0.146,1.085,0.221,1.74
	c0.146,1.293,0.347,3.063,0.657,3.638L67.499,115.576z"/>
<path fill="#221714" d="M59.901,61.684l-1.139-0.807c0.357-0.506,0.745-1.068,1.136-1.634c0.26-0.377,0.521-0.757,0.776-1.123
	c-1.649-0.455-3.068-2.062-3.891-3.547l1.221-0.677c0.865,1.562,2.452,3.139,3.846,2.934l1.641-0.246L62.52,57.93
	c-0.457,0.632-0.967,1.372-1.473,2.106C60.654,60.606,60.262,61.173,59.901,61.684z"/>
<path fill="#221714" d="M57.285,72.93c-0.688,0-1.421-0.172-2.194-0.514c-2.897-1.286-3.197-4.122-3.462-6.624l-0.066-0.619
	l0.724-0.082l0.064-0.152c0.088,0.038,0.174,0.076,0.259,0.116l0.34-0.038l0.023,0.216c0.523,0.269,1.005,0.569,1.476,0.862
	c0.844,0.526,1.642,1.022,2.58,1.282c0.935,0.256,1.871,0.336,2.863,0.42c0.409,0.035,0.821,0.07,1.237,0.118l0.851,0.098
	l-0.268,0.813c-0.639,1.942-1.609,3.215-2.886,3.781C58.343,72.822,57.828,72.93,57.285,72.93z M53.168,66.945
	c0.254,1.866,0.725,3.411,2.489,4.193c1.009,0.448,1.885,0.51,2.603,0.193c0.847-0.377,1.427-1.253,1.811-2.118
	c-0.1-0.009-0.198-0.018-0.298-0.025c-1.01-0.086-2.055-0.176-3.114-0.465c-1.136-0.314-2.057-0.889-2.948-1.443
	C53.527,67.166,53.347,67.055,53.168,66.945z"/>
<g>
</g>
<g>
</g>
<g>
</g>
<g>
</g>
<g>
</g>
</svg>
